<?xml version="1.0" encoding="utf-8"?><!-- Uploaded to: SVG Repo, www.svgrepo.com, Generator: SVG Repo Mixer Tools -->
<svg width="800px" height="800px" viewBox="0 0 24 24" fill="none" xmlns="http://www.w3.org/2000/svg">
<path fill-rule="evenodd" clip-rule="evenodd" d="M4.95525 3.25C4.97013 3.25001 4.98504 3.25001 5 3.25001C5.01496 3.25001 5.02988 3.25001 5.04475 3.25C5.47757 3.24995 5.8744 3.24991 6.19721 3.29331C6.55269 3.3411 6.92841 3.45355 7.23744 3.76257C7.54646 4.07159 7.65891 4.44732 7.7067 4.8028C7.74566 5.0926 7.74961 5.44205 7.74997 5.82364C7.81258 5.70042 7.86892 5.59551 7.93232 5.49826C8.37959 4.81213 9.10941 4.36107 9.92313 4.26787C10.0801 4.24989 10.2439 4.24994 10.4535 4.25C10.4658 4.25 10.4782 4.25001 10.4907 4.25001H13.5093C13.5218 4.25001 13.5342 4.25 13.5465 4.25C13.7561 4.24994 13.9199 4.24989 14.0769 4.26787C14.8906 4.36107 15.6204 4.81213 16.0677 5.49826C16.1311 5.59551 16.1874 5.70044 16.25 5.82365C16.2504 5.44206 16.2543 5.0926 16.2933 4.8028C16.3411 4.44732 16.4535 4.07159 16.7626 3.76257C17.0716 3.45355 17.4473 3.3411 17.8028 3.29331C18.1256 3.24991 18.5224 3.24995 18.9553 3.25H19.0448C19.4776 3.24995 19.8744 3.24991 20.1972 3.29331C20.5527 3.3411 20.9284 3.45355 21.2374 3.76257C21.5465 4.07159 21.6589 4.44732 21.7067 4.8028C21.7501 5.12561 21.7501 5.52245 21.75 5.95526L21.75 7.4505C21.9453 7.66111 22.1165 7.89437 22.2598 8.14624C22.5309 8.62307 22.6444 9.14675 22.698 9.74567C22.75 10.3268 22.75 11.0469 22.75 11.9397V14.0549C22.75 15.4225 22.75 16.5248 22.6335 17.3918C22.5125 18.2919 22.2536 19.0497 21.6517 19.6517C21.0497 20.2536 20.2919 20.5125 19.3918 20.6335C18.5248 20.75 17.4225 20.75 16.0549 20.75H7.94513C6.57754 20.75 5.47522 20.75 4.60825 20.6335C3.70814 20.5125 2.95027 20.2536 2.34835 19.6517C1.74643 19.0497 1.48754 18.2919 1.36652 17.3918C1.24996 16.5248 1.24998 15.4225 1.25 14.0549L1.25 11.9398C1.24999 11.0469 1.24998 10.3268 1.30201 9.74567C1.35563 9.14675 1.46907 8.62307 1.74024 8.14624C1.88347 7.89437 2.05474 7.66111 2.25 7.4505V6.00001C2.25 5.98505 2.25 5.97013 2.25 5.95526C2.24995 5.52244 2.2499 5.12561 2.2933 4.8028C2.34109 4.44732 2.45354 4.07159 2.76256 3.76257C3.07159 3.45355 3.44731 3.3411 3.80279 3.29331C4.12561 3.24991 4.52244 3.24995 4.95525 3.25ZM3.75 6.48205C4.05922 6.38706 4.38911 6.33394 4.74566 6.30202C5.16903 6.26412 5.66612 6.25383 6.25 6.25104V6.00001C6.25 5.5074 6.24841 5.21339 6.22008 5.00267C6.2071 4.90611 6.1918 4.85775 6.18284 4.83597C6.18077 4.83093 6.17915 4.82761 6.17814 4.82568L6.17676 4.82324L6.17433 4.82187C6.1724 4.82086 6.16908 4.81924 6.16404 4.81717C6.14226 4.80821 6.0939 4.79291 5.99734 4.77993C5.78661 4.7516 5.49261 4.75001 5 4.75001C4.50739 4.75001 4.21339 4.7516 4.00267 4.77993C3.90611 4.79291 3.85775 4.80821 3.83597 4.81717C3.83092 4.81924 3.82761 4.82086 3.82567 4.82187L3.82324 4.82324L3.82186 4.82568C3.82085 4.82761 3.81924 4.83093 3.81716 4.83597C3.8082 4.85775 3.79291 4.90611 3.77992 5.00267C3.75159 5.21339 3.75 5.5074 3.75 6.00001V6.48205ZM6.97508 7.75001C6.03864 7.75001 5.38583 7.75071 4.87941 7.79604C4.38311 7.84047 4.10055 7.92313 3.88774 8.04415C3.53576 8.24432 3.24431 8.53576 3.04415 8.88774C2.92312 9.10056 2.84047 9.38311 2.79604 9.87942C2.7507 10.3858 2.75 11.0386 2.75 11.9751V14C2.75 15.4354 2.75159 16.4365 2.85315 17.1919C2.9518 17.9257 3.13225 18.3142 3.40901 18.591C3.68577 18.8678 4.07435 19.0482 4.80812 19.1469C5.56347 19.2484 6.56459 19.25 8 19.25H16C17.4354 19.25 18.4365 19.2484 19.1919 19.1469C19.9257 19.0482 20.3142 18.8678 20.591 18.591C20.8678 18.3142 21.0482 17.9257 21.1469 17.1919C21.2484 16.4365 21.25 15.4354 21.25 14V11.9751C21.25 11.0386 21.2493 10.3858 21.204 9.87942C21.1595 9.38311 21.0769 9.10056 20.9559 8.88774L21.3526 8.6621C21.3526 8.66211 21.3526 8.6621 21.3526 8.6621L20.9559 8.88774C20.9266 8.83631 20.8954 8.78616 20.8623 8.7374C20.5585 8.68104 20.319 8.4415 20.2626 8.13766C20.2139 8.10461 20.1637 8.0734 20.1123 8.04415C19.8995 7.92313 19.6169 7.84047 19.1206 7.79604C18.6142 7.75071 17.9614 7.75001 17.0249 7.75001H16.7454C16.7372 7.75001 16.729 7.75001 16.7207 7.75002C16.6231 7.7501 16.5198 7.75019 16.4189 7.73864C15.9011 7.67933 15.4366 7.39229 15.152 6.95567C15.0966 6.8706 15.0504 6.77812 15.0068 6.69076C15.0032 6.68339 14.9995 6.67604 14.9958 6.66875C14.8778 6.4326 14.8445 6.3686 14.8111 6.3174C14.6078 6.00552 14.276 5.80049 13.9062 5.75813C13.8454 5.75117 13.7733 5.75001 13.5093 5.75001H10.4907C10.2267 5.75001 10.1546 5.75117 10.0938 5.75813C9.72395 5.80049 9.39221 6.00552 9.18891 6.31739C9.15553 6.3686 9.12224 6.43257 9.00416 6.66875C9.0005 6.67605 8.99684 6.6834 8.99315 6.69079C8.94958 6.77812 8.90343 6.87061 8.84799 6.95567C8.56336 7.39229 8.09893 7.67933 7.58111 7.73864C7.48023 7.75019 7.37688 7.7501 7.27926 7.75002C7.27101 7.75001 7.2628 7.75001 7.25464 7.75001H6.97508ZM17.75 6.25104C18.3339 6.25383 18.831 6.26412 19.2543 6.30202C19.6109 6.33394 19.9408 6.38706 20.25 6.48205V6.00001C20.25 5.5074 20.2484 5.21339 20.2201 5.00267C20.2071 4.90611 20.1918 4.85775 20.1828 4.83597C20.1808 4.83093 20.1792 4.82761 20.1781 4.82568L20.1768 4.82323L20.1743 4.82187C20.1724 4.82086 20.1691 4.81924 20.164 4.81717C20.1423 4.80821 20.0939 4.79291 19.9973 4.77993C19.7866 4.7516 19.4926 4.75001 19 4.75001C18.5074 4.75001 18.2134 4.7516 18.0027 4.77993C17.9061 4.79291 17.8577 4.80821 17.836 4.81717C17.8309 4.81924 17.8276 4.82086 17.8257 4.82187L17.8232 4.82324L17.8219 4.82568C17.8209 4.82761 17.8192 4.83093 17.8172 4.83597C17.8082 4.85775 17.7929 4.90611 17.7799 5.00267C17.7516 5.21339 17.75 5.5074 17.75 6.00001V6.25104ZM21.3875 8.64225C21.3875 8.64226 21.3876 8.64225 21.3875 8.64225V8.64225ZM3.82324 4.82324C3.82357 4.82297 3.82364 4.82284 3.82324 4.82324V4.82324ZM17.8232 4.82324C17.8228 4.8237 17.823 4.82359 17.8232 4.82324V4.82324ZM16.5 11.25C16.9142 11.25 17.25 11.5858 17.25 12V12.75H18C18.4142 12.75 18.75 13.0858 18.75 13.5C18.75 13.9142 18.4142 14.25 18 14.25H17.25V15C17.25 15.4142 16.9142 15.75 16.5 15.75C16.0858 15.75 15.75 15.4142 15.75 15V14.25H15C14.5858 14.25 14.25 13.9142 14.25 13.5C14.25 13.0858 14.5858 12.75 15 12.75H15.75V12C15.75 11.5858 16.0858 11.25 16.5 11.25ZM5.25 13.5C5.25 13.0858 5.58579 12.75 6 12.75H9C9.41422 12.75 9.75 13.0858 9.75 13.5C9.75 13.9142 9.41422 14.25 9 14.25H6C5.58579 14.25 5.25 13.9142 5.25 13.5Z" fill="#1C274C"/>
</svg>