<?xml version="1.0" encoding="utf-8"?><!-- Uploaded to: SVG Repo, www.svgrepo.com, Generator: SVG Repo Mixer Tools -->
<svg width="800px" height="800px" viewBox="0 0 24 24" fill="none" xmlns="http://www.w3.org/2000/svg">
<path fill-rule="evenodd" clip-rule="evenodd" d="M12 2.75C6.89137 2.75 2.75 6.89137 2.75 12C2.75 17.1086 6.89137 21.25 12 21.25C17.1086 21.25 21.25 17.1086 21.25 12C21.25 6.89137 17.1086 2.75 12 2.75ZM1.25 12C1.25 6.06294 6.06294 1.25 12 1.25C17.9371 1.25 22.75 6.06294 22.75 12C22.75 17.9371 17.9371 22.75 12 22.75C6.06294 22.75 1.25 17.9371 1.25 12Z" fill="#1C274D"/>
<path fill-rule="evenodd" clip-rule="evenodd" d="M14.9849 7.40455L16.6067 9.02795C17.0951 9.51684 17.5202 9.94231 17.7997 10.3195C18.0948 10.7177 18.3445 11.215 18.2156 11.8109C18.0868 12.4069 17.6538 12.7565 17.2205 12.997C16.8101 13.2248 16.2472 13.4362 15.6006 13.6791L14.5887 14.0593C14.1652 14.2184 14.1342 14.2418 14.1165 14.2571C14.0982 14.2729 14.0819 14.2908 14.0678 14.3105C14.054 14.3297 14.0335 14.363 13.9134 14.7995L13.9027 14.8385C13.7923 15.2397 13.693 15.6007 13.5816 15.8784C13.4671 16.1635 13.285 16.5094 12.9184 16.7187C12.6848 16.852 12.4204 16.9219 12.1515 16.9215C11.7292 16.9208 11.3999 16.71 11.1596 16.5186C10.9256 16.3322 10.6611 16.0674 10.3672 15.7731L9.82669 15.2321L8.0306 17.03C7.73786 17.323 7.26298 17.3233 6.96994 17.0305C6.6769 16.7378 6.67666 16.2629 6.9694 15.9699L8.76657 14.1709L8.25181 13.6556C7.95974 13.3633 7.69683 13.1001 7.5116 12.8674C7.32137 12.6284 7.11189 12.3015 7.10925 11.8823C7.10752 11.6084 7.17862 11.339 7.31531 11.1017C7.52462 10.7382 7.86833 10.5574 8.15177 10.4437C8.42772 10.3329 8.7862 10.2341 9.18436 10.1243C9.19726 10.1208 9.2102 10.1172 9.22318 10.1136C9.66055 9.99305 9.6936 9.97252 9.71263 9.95883C9.73271 9.94437 9.75099 9.92752 9.76708 9.90865C9.78243 9.89064 9.80569 9.85908 9.96188 9.4328L10.3091 8.48509C10.3157 8.46716 10.3222 8.44929 10.3287 8.43148C10.5684 7.77732 10.7767 7.20858 11.0024 6.79378C11.2403 6.35657 11.5883 5.91768 12.187 5.78557C12.786 5.65343 13.2862 5.90534 13.6858 6.20203C14.0649 6.48345 14.4928 6.91187 14.9849 7.40455ZM12.5123 7.24995C12.5119 7.25001 12.5112 7.25013 12.5102 7.25034C12.5081 7.25081 12.5075 7.25108 12.5079 7.25094C12.5081 7.25082 12.5083 7.25079 12.5079 7.25094C12.5076 7.25107 12.5064 7.25182 12.5032 7.25416C12.5 7.25655 12.4947 7.26073 12.4875 7.26752C12.4554 7.29772 12.3989 7.36566 12.32 7.51074C12.1539 7.81596 11.9826 8.2776 11.7175 9.00113L11.3703 9.94883C11.3615 9.97294 11.3527 9.99717 11.3438 10.0215C11.2352 10.3202 11.1221 10.6312 10.9087 10.8816C10.8144 10.9923 10.7071 11.0912 10.589 11.1762C10.322 11.3684 10.0027 11.4556 9.69638 11.5393C9.67144 11.5461 9.64659 11.5529 9.62186 11.5597C9.17241 11.6836 8.89793 11.7605 8.71061 11.8357C8.67993 11.848 8.65547 11.8588 8.63622 11.868C8.64848 11.8856 8.66449 11.9072 8.68524 11.9333C8.81105 12.0914 9.01182 12.294 9.34144 12.6239L11.3998 14.6844C11.7315 15.0164 11.9352 15.2187 12.0941 15.3453C12.1193 15.3653 12.1404 15.381 12.1577 15.3931C12.1668 15.3739 12.1774 15.3497 12.1895 15.3196C12.2653 15.1309 12.3426 14.8543 12.4672 14.4015C12.4739 14.3769 12.4807 14.3521 12.4875 14.3272C12.5709 14.0213 12.6577 13.7027 12.8491 13.436C12.9317 13.3209 13.0275 13.2159 13.1345 13.1232C13.3828 12.9082 13.6922 12.7928 13.989 12.6821C14.0131 12.6731 14.0372 12.6641 14.0611 12.6552L15.0197 12.295C15.7354 12.0261 16.1914 11.8527 16.4926 11.6855C16.6356 11.6061 16.7025 11.5495 16.7322 11.5175C16.7452 11.5034 16.7488 11.4965 16.7489 11.4964C16.749 11.496 16.7493 11.495 16.7495 11.4939C16.7498 11.4927 16.7499 11.4919 16.75 11.4915C16.7499 11.4912 16.7495 11.483 16.7435 11.465C16.7296 11.4234 16.692 11.3441 16.5946 11.2126C16.3893 10.9356 16.0457 10.5889 15.5052 10.0478L13.9641 8.50509C13.4197 7.96013 13.0705 7.61339 12.7917 7.40639C12.6591 7.30801 12.5795 7.27019 12.5378 7.25634C12.5284 7.25322 12.5219 7.25165 12.518 7.25086C12.5147 7.2502 12.5129 7.25 12.5123 7.24995Z" fill="#1C274C"/>
</svg>