<?xml version="1.0" encoding="utf-8"?><!-- Uploaded to: SVG Repo, www.svgrepo.com, Generator: SVG Repo Mixer Tools -->
<svg width="800px" height="800px" viewBox="0 0 24 24" fill="none" xmlns="http://www.w3.org/2000/svg">
<path fill-rule="evenodd" clip-rule="evenodd" d="M7.95525 1.25C7.97013 1.25001 7.98504 1.25001 8 1.25001L16.0447 1.25C16.4776 1.24995 16.8744 1.24991 17.1972 1.29331C17.5527 1.3411 17.9284 1.45355 18.2374 1.76257C18.5465 2.07159 18.6589 2.44732 18.7067 2.8028C18.7501 3.12561 18.7501 3.52245 18.75 3.95526V4.04475C18.7501 4.47757 18.7501 4.8744 18.7067 5.19721C18.6589 5.55269 18.5465 5.92842 18.2374 6.23744C17.9284 6.54647 17.5527 6.65891 17.1972 6.70671C16.8744 6.75011 16.4776 6.75006 16.0447 6.75001L14.75 6.75001V8.91445L16.182 9.27244C16.5838 9.3729 16.8281 9.7801 16.7277 10.1819C16.6272 10.5838 16.22 10.8281 15.8182 10.7277L14.75 10.4606V12.4145L16.182 12.7724C16.5838 12.8729 16.8281 13.2801 16.7277 13.6819C16.6272 14.0838 16.22 14.3281 15.8182 14.2277L14.75 13.9606V14.378C15.6239 14.6869 16.25 15.5203 16.25 16.5C16.25 17.596 15.4664 18.509 14.4288 18.7092C14.6338 19.0941 14.75 19.5335 14.75 20C14.75 21.5188 13.5188 22.75 12 22.75C10.4812 22.75 9.25 21.5188 9.25 20C9.25 19.5335 9.36617 19.0941 9.57116 18.7092C8.53363 18.509 7.75 17.596 7.75 16.5C7.75 15.5203 8.37611 14.6869 9.25 14.378V12.5856L7.81815 12.2277C7.41631 12.1272 7.17199 11.72 7.27245 11.3181C7.37291 10.9163 7.78011 10.672 8.18196 10.7724L9.25 11.0395V9.08562L7.81815 8.72765C7.41631 8.62719 7.17199 8.21999 7.27245 7.81814C7.37291 7.4163 7.78011 7.17198 8.18196 7.27244L9.25 7.53945V6.75001H8C7.98504 6.75001 7.97013 6.75001 7.95526 6.75001C7.52244 6.75006 7.1256 6.75011 6.80279 6.70671C6.44731 6.65891 6.07159 6.54647 5.76256 6.23744C5.45354 5.92842 5.34109 5.5527 5.2933 5.19721C5.2499 4.8744 5.24995 4.47757 5.25 4.04476C5.25 4.02988 5.25 4.01497 5.25 4.00001C5.25 3.98505 5.25 3.97013 5.25 3.95526C5.24995 3.52244 5.2499 3.12561 5.2933 2.8028C5.34109 2.44732 5.45354 2.07159 5.76256 1.76257C6.07159 1.45355 6.44731 1.3411 6.80279 1.29331C7.1256 1.24991 7.52244 1.24995 7.95525 1.25ZM10.75 6.75001V7.91445L13.25 8.53945V6.75001H10.75ZM13.25 10.0856L10.75 9.46062V11.4145L13.25 12.0395V10.0856ZM13.25 13.5856L10.75 12.9606V14.25H13.25V13.5856ZM12 18.75C11.3096 18.75 10.75 19.3097 10.75 20C10.75 20.6904 11.3096 21.25 12 21.25C12.6904 21.25 13.25 20.6904 13.25 20C13.25 19.3097 12.6904 18.75 12 18.75ZM14 17.25C14.4142 17.25 14.75 16.9142 14.75 16.5C14.75 16.0858 14.4142 15.75 14 15.75H10C9.58579 15.75 9.25 16.0858 9.25 16.5C9.25 16.9142 9.58579 17.25 10 17.25H14ZM6.82328 2.82318C6.82361 2.82291 6.82368 2.82278 6.82328 2.82318V2.82318ZM6.82567 2.82187L6.82328 2.82318L6.82186 2.82568C6.82085 2.82761 6.81923 2.83093 6.81716 2.83597C6.8082 2.85775 6.79291 2.90611 6.77992 3.00267C6.75159 3.21339 6.75 3.5074 6.75 4.00001C6.75 4.49261 6.75159 4.78662 6.77992 4.99734C6.79291 5.0939 6.8082 5.14226 6.81716 5.16404C6.81923 5.16909 6.82085 5.1724 6.82186 5.17434L6.82324 5.17677L6.82567 5.17815C6.8276 5.17916 6.83092 5.18077 6.83596 5.18285C6.85774 5.19181 6.90611 5.2071 7.00266 5.22008C7.21339 5.24841 7.50739 5.25001 8 5.25001H16C16.4926 5.25001 16.7866 5.24841 16.9973 5.22008C17.0939 5.2071 17.1423 5.19181 17.164 5.18285C17.1691 5.18077 17.1724 5.17916 17.1743 5.17815L17.1768 5.17677L17.1781 5.17434C17.1791 5.1724 17.1808 5.16909 17.1828 5.16404C17.1918 5.14226 17.2071 5.0939 17.2201 4.99734C17.2484 4.78662 17.25 4.49261 17.25 4.00001C17.25 3.5074 17.2484 3.21339 17.2201 3.00267C17.2071 2.90611 17.1918 2.85775 17.1828 2.83597C17.1808 2.83093 17.1791 2.82761 17.1781 2.82568L17.1768 2.82324L17.1743 2.82187C17.1724 2.82086 17.1691 2.81924 17.164 2.81717C17.1423 2.80821 17.0939 2.79291 16.9973 2.77993C16.7866 2.7516 16.4926 2.75001 16 2.75001H8C7.50739 2.75001 7.21339 2.7516 7.00266 2.77993C6.90611 2.79291 6.85774 2.80821 6.83596 2.81717C6.83092 2.81924 6.8276 2.82086 6.82567 2.82187ZM17.1768 2.82324C17.1766 2.82306 17.1768 2.82328 17.1768 2.82324V2.82324ZM17.1768 2.82324C17.1766 2.82306 17.1768 2.82328 17.1768 2.82324V2.82324ZM6.82324 5.17677C6.82283 5.17636 6.82297 5.17644 6.82324 5.17677V5.17677ZM3.68859 7.4723C3.97999 7.17792 4.45486 7.17551 4.74923 7.46692L5.45634 8.16688C5.75072 8.45828 5.75313 8.93315 5.46173 9.22753C5.17032 9.5219 4.69546 9.52431 4.40108 9.23291L3.69397 8.53295C3.3996 8.24155 3.39719 7.76668 3.68859 7.4723ZM20.3114 7.4723C20.6028 7.76668 20.6004 8.24155 20.306 8.53295L19.5989 9.23291C19.3045 9.52431 18.8297 9.5219 18.5383 9.22753C18.2469 8.93315 18.2493 8.45828 18.5437 8.16688L19.2508 7.46692C19.5451 7.17551 20.02 7.17792 20.3114 7.4723ZM19.25 11.4994C19.25 11.0852 19.5858 10.7494 20 10.7494H22C22.4142 10.7494 22.75 11.0852 22.75 11.4994C22.75 11.9137 22.4142 12.2494 22 12.2494H20C19.5858 12.2494 19.25 11.9137 19.25 11.4994ZM1.25 11.5004C1.25 11.0862 1.58579 10.7504 2 10.7504H4C4.41421 10.7504 4.75 11.0862 4.75 11.5004C4.75 11.9146 4.41421 12.2504 4 12.2504H2C1.58579 12.2504 1.25 11.9146 1.25 11.5004ZM5.46173 13.7723C5.75313 14.0667 5.75072 14.5416 5.45634 14.833L4.74924 15.5329C4.45486 15.8243 3.97999 15.8219 3.68859 15.5276C3.39719 15.2332 3.3996 14.7583 3.69397 14.4669L4.40108 13.767C4.69546 13.4755 5.17032 13.478 5.46173 13.7723ZM18.5383 13.7723C18.8297 13.478 19.3045 13.4755 19.5989 13.767L20.306 14.4669C20.6004 14.7583 20.6028 15.2332 20.3114 15.5276C20.02 15.8219 19.5451 15.8243 19.2508 15.5329L18.5437 14.833C18.2493 14.5416 18.2469 14.0667 18.5383 13.7723Z" fill="#1C274C"/>
</svg>