<?xml version="1.0" encoding="utf-8"?>
<svg width="800px" height="800px" viewBox="0 0 24 24" fill="none" xmlns="http://www.w3.org/2000/svg">
<path fill-rule="evenodd" clip-rule="evenodd" d="M5.42677 1.25002C5.45086 1.25004 5.47528 1.25005 5.50005 1.25005C5.52482 1.25005 5.54924 1.25004 5.57332 1.25002C5.96605 1.24983 6.26904 1.24968 6.53655 1.30289C7.62745 1.51988 8.48021 2.37265 8.69721 3.46355C8.75042 3.73105 8.75027 4.03405 8.75007 4.42677C8.75006 4.45086 8.75005 4.47528 8.75005 4.50005V4.75005H15.25V4.50005C15.25 4.47528 15.25 4.45086 15.25 4.42677C15.2498 4.03405 15.2497 3.73105 15.3029 3.46355C15.5199 2.37265 16.3727 1.51988 17.4635 1.30289C17.7311 1.24968 18.034 1.24983 18.4268 1.25002C18.4509 1.25004 18.4753 1.25005 18.5 1.25005C18.5248 1.25005 18.5492 1.25004 18.5733 1.25002C18.966 1.24983 19.269 1.24968 19.5365 1.30289C20.6274 1.51988 21.4802 2.37265 21.6972 3.46355C21.7504 3.73105 21.7503 4.03404 21.7501 4.42676C21.7501 4.45084 21.75 4.47527 21.75 4.50005V6.50005C21.75 6.52482 21.7501 6.54925 21.7501 6.57334C21.7503 6.96606 21.7504 7.26904 21.6972 7.53654C21.4802 8.62744 20.6274 9.48021 19.5365 9.69721C19.269 9.75042 18.966 9.75027 18.5733 9.75007C18.5492 9.75006 18.5248 9.75005 18.5 9.75005C18.4753 9.75005 18.4509 9.75006 18.4268 9.75007C18.034 9.75027 17.7311 9.75042 17.4635 9.69721C16.3727 9.48021 15.5199 8.62744 15.3029 7.53655C15.2497 7.26904 15.2498 6.96605 15.25 6.57332C15.25 6.54924 15.25 6.52482 15.25 6.50005V6.25005H12.75V8.00005C12.75 8.41426 12.4143 8.75005 12 8.75005C11.5858 8.75005 11.25 8.41426 11.25 8.00005V6.25005H8.75005V6.50005C8.75005 6.52482 8.75006 6.54924 8.75007 6.57332C8.75027 6.96605 8.75042 7.26904 8.69721 7.53654C8.48021 8.62744 7.62744 9.48021 6.53655 9.69721C6.26904 9.75042 5.96605 9.75027 5.57332 9.75007C5.54924 9.75006 5.52482 9.75005 5.50005 9.75005C5.47528 9.75005 5.45086 9.75006 5.42677 9.75007C5.03405 9.75027 4.73105 9.75042 4.46355 9.69721C3.37265 9.48021 2.51988 8.62744 2.30289 7.53655C2.24968 7.26904 2.24983 6.96605 2.25002 6.57332C2.25004 6.54924 2.25005 6.52482 2.25005 6.50005V4.50005C2.25005 4.47528 2.25004 4.45086 2.25002 4.42677C2.24983 4.03405 2.24968 3.73105 2.30289 3.46355C2.51988 2.37265 3.37265 1.51988 4.46355 1.30289C4.73105 1.24968 5.03405 1.24983 5.42677 1.25002ZM7.25005 4.50005C7.25005 3.99944 7.24641 3.85867 7.22603 3.75618C7.1274 3.26032 6.73977 2.8727 6.24391 2.77407C6.14142 2.75368 6.00065 2.75005 5.50005 2.75005C4.99944 2.75005 4.85867 2.75368 4.75618 2.77407C4.26032 2.8727 3.8727 3.26032 3.77407 3.75618C3.75368 3.85867 3.75005 3.99944 3.75005 4.50005V6.50005C3.75005 7.00065 3.75368 7.14142 3.77407 7.24391C3.8727 7.73977 4.26032 8.1274 4.75618 8.22603C4.85867 8.24641 4.99944 8.25005 5.50005 8.25005C6.00065 8.25005 6.14142 8.24641 6.24391 8.22603C6.73977 8.1274 7.1274 7.73977 7.22603 7.24391C7.24641 7.14142 7.25005 7.00065 7.25005 6.50005V4.50005ZM16.75 6.50005C16.75 7.00065 16.7537 7.14142 16.7741 7.24391C16.8727 7.73977 17.2603 8.1274 17.7562 8.22603C17.8587 8.24641 17.9994 8.25005 18.5 8.25005C19.0007 8.25005 19.1414 8.24641 19.2439 8.22603C19.7398 8.1274 20.1274 7.73977 20.226 7.24391C20.2464 7.14142 20.25 7.00065 20.25 6.50005V4.50005C20.25 3.99944 20.2464 3.85867 20.226 3.75618C20.1274 3.26032 19.7398 2.8727 19.2439 2.77407C19.1414 2.75368 19.0007 2.75005 18.5 2.75005C17.9994 2.75005 17.8587 2.75368 17.7562 2.77407C17.2603 2.8727 16.8727 3.26032 16.7741 3.75618C16.7537 3.85867 16.75 3.99944 16.75 4.50005V6.50005ZM9.46972 9.46972C9.76261 9.17682 10.2375 9.17682 10.5304 9.46972L12 10.9394L13.4697 9.46972C13.7626 9.17682 14.2375 9.17682 14.5304 9.46972C14.8233 9.76261 14.8233 10.2375 14.5304 10.5304L13.0607 12L14.5304 13.4697C14.8233 13.7626 14.8233 14.2375 14.5304 14.5304C14.2375 14.8233 13.7626 14.8233 13.4697 14.5304L12 13.0607L10.5304 14.5304C10.2375 14.8233 9.76261 14.8233 9.46972 14.5304C9.17682 14.2375 9.17682 13.7626 9.46972 13.4697L10.9394 12L9.46972 10.5304C9.17682 10.2375 9.17682 9.76261 9.46972 9.46972ZM5.42677 14.25C5.45086 14.25 5.47528 14.25 5.50005 14.25C5.52482 14.25 5.54924 14.25 5.57332 14.25C5.96605 14.2498 6.26904 14.2497 6.53655 14.3029C7.62745 14.5199 8.48021 15.3727 8.69721 16.4635C8.75042 16.7311 8.75027 17.034 8.75007 17.4268C8.75006 17.4509 8.75005 17.4753 8.75005 17.5V17.75H11.25V16C11.25 15.5858 11.5858 15.25 12 15.25C12.4143 15.25 12.75 15.5858 12.75 16V17.75H15.25V17.5C15.25 17.4753 15.25 17.4509 15.25 17.4268C15.2498 17.034 15.2497 16.7311 15.3029 16.4635C15.5199 15.3727 16.3727 14.5199 17.4635 14.3029C17.7311 14.2497 18.034 14.2498 18.4268 14.25C18.4509 14.25 18.4753 14.25 18.5 14.25C18.5248 14.25 18.5492 14.25 18.5733 14.25C18.966 14.2498 19.269 14.2497 19.5365 14.3029C20.6274 14.5199 21.4802 15.3727 21.6972 16.4635C21.7504 16.7311 21.7503 17.034 21.7501 17.4268C21.7501 17.4508 21.75 17.4753 21.75 17.5V19.5C21.75 19.5248 21.7501 19.5492 21.7501 19.5733C21.7503 19.9661 21.7504 20.269 21.6972 20.5365C21.4802 21.6274 20.6274 22.4802 19.5365 22.6972C19.269 22.7504 18.9661 22.7503 18.5733 22.7501C18.5493 22.7501 18.5248 22.75 18.5 22.75C18.4753 22.75 18.4508 22.7501 18.4268 22.7501C18.034 22.7503 17.7311 22.7504 17.4635 22.6972C16.3727 22.4802 15.5199 21.6274 15.3029 20.5365C15.2497 20.269 15.2498 19.966 15.25 19.5733C15.25 19.5492 15.25 19.5248 15.25 19.5V19.25H8.75005V19.5C8.75005 19.5248 8.75006 19.5492 8.75007 19.5733C8.75027 19.966 8.75042 20.269 8.69721 20.5365C8.48021 21.6274 7.62744 22.4802 6.53655 22.6972C6.26904 22.7504 5.96606 22.7503 5.57334 22.7501C5.54925 22.7501 5.52482 22.75 5.50005 22.75C5.47527 22.75 5.45084 22.7501 5.42676 22.7501C5.03404 22.7503 4.73105 22.7504 4.46355 22.6972C3.37265 22.4802 2.51988 21.6274 2.30289 20.5365C2.24968 20.269 2.24983 19.9661 2.25002 19.5733C2.25004 19.5492 2.25005 19.5248 2.25005 19.5V17.5C2.25005 17.4753 2.25004 17.4509 2.25002 17.4268C2.24983 17.034 2.24968 16.7311 2.30289 16.4635C2.51988 15.3727 3.37265 14.5199 4.46355 14.3029C4.73105 14.2497 5.03405 14.2498 5.42677 14.25ZM7.25005 17.5C7.25005 16.9994 7.24641 16.8587 7.22603 16.7562C7.1274 16.2603 6.73977 15.8727 6.24391 15.7741C6.14142 15.7537 6.00065 15.75 5.50005 15.75C4.99944 15.75 4.85867 15.7537 4.75618 15.7741C4.26032 15.8727 3.8727 16.2603 3.77407 16.7562C3.75368 16.8587 3.75005 16.9994 3.75005 17.5V19.5C3.75005 20.0007 3.75368 20.1414 3.77407 20.2439C3.8727 20.7398 4.26032 21.1274 4.75618 21.226C4.85867 21.2464 4.99944 21.25 5.50005 21.25C6.00065 21.25 6.14142 21.2464 6.24391 21.226C6.73977 21.1274 7.1274 20.7398 7.22603 20.2439C7.24641 20.1414 7.25005 20.0007 7.25005 19.5V17.5ZM16.75 19.5C16.75 20.0007 16.7537 20.1414 16.7741 20.2439C16.8727 20.7398 17.2603 21.1274 17.7562 21.226C17.8587 21.2464 17.9994 21.25 18.5 21.25C19.0007 21.25 19.1414 21.2464 19.2439 21.226C19.7398 21.1274 20.1274 20.7398 20.226 20.2439C20.2464 20.1414 20.25 20.0007 20.25 19.5V17.5C20.25 16.9994 20.2464 16.8587 20.226 16.7562C20.1274 16.2603 19.7398 15.8727 19.2439 15.7741C19.1414 15.7537 19.0007 15.75 18.5 15.75C17.9994 15.75 17.8587 15.7537 17.7562 15.7741C17.2603 15.8727 16.8727 16.2603 16.7741 16.7562C16.7537 16.8587 16.75 16.9994 16.75 17.5V19.5Z" fill="#1C274C"/>
</svg>