<?xml version="1.0" encoding="utf-8"?><!-- Uploaded to: SVG Repo, www.svgrepo.com, Generator: SVG Repo Mixer Tools -->
<svg width="800px" height="800px" viewBox="0 0 24 24" fill="none" xmlns="http://www.w3.org/2000/svg">
<path fill-rule="evenodd" clip-rule="evenodd" d="M4 2.75C3.30964 2.75 2.75 3.30964 2.75 4C2.75 4.69036 3.30964 5.25 4 5.25C4.69036 5.25 5.25 4.69036 5.25 4C5.25 3.30964 4.69036 2.75 4 2.75ZM1.25 4C1.25 2.48122 2.48122 1.25 4 1.25C5.51878 1.25 6.75 2.48122 6.75 4C6.75 5.25878 5.90425 6.32002 4.75 6.64648V11.25H11.25V6.64648C10.0957 6.32002 9.25 5.25878 9.25 4C9.25 2.48122 10.4812 1.25 12 1.25C13.5188 1.25 14.75 2.48122 14.75 4C14.75 5.25878 13.9043 6.32002 12.75 6.64648V11.25H16C16.964 11.25 17.6116 11.2484 18.0946 11.1835C18.5561 11.1214 18.7536 11.0142 18.8839 10.8839C19.0142 10.7536 19.1214 10.5561 19.1835 10.0946C19.2484 9.61157 19.25 8.96401 19.25 8V6.64648C18.0957 6.32002 17.25 5.25878 17.25 4C17.25 2.48122 18.4812 1.25 20 1.25C21.5188 1.25 22.75 2.48122 22.75 4C22.75 5.25878 21.9043 6.32002 20.75 6.64648V8.05199C20.75 8.95048 20.7501 9.6997 20.6701 10.2945C20.5857 10.9223 20.4 11.4891 19.9445 11.9445C19.4891 12.4 18.9223 12.5857 18.2945 12.6701C17.6997 12.7501 16.9505 12.75 16.052 12.75L12.75 12.75V17.3535C13.9043 17.68 14.75 18.7412 14.75 20C14.75 21.5188 13.5188 22.75 12 22.75C10.4812 22.75 9.25 21.5188 9.25 20C9.25 18.7412 10.0957 17.68 11.25 17.3535V12.75H4.75V17.3535C5.90425 17.68 6.75 18.7412 6.75 20C6.75 21.5188 5.51878 22.75 4 22.75C2.48122 22.75 1.25 21.5188 1.25 20C1.25 18.7412 2.09575 17.68 3.25 17.3535V6.64648C2.09575 6.32002 1.25 5.25878 1.25 4ZM12 2.75C11.3096 2.75 10.75 3.30964 10.75 4C10.75 4.69036 11.3096 5.25 12 5.25C12.6904 5.25 13.25 4.69036 13.25 4C13.25 3.30964 12.6904 2.75 12 2.75ZM20 2.75C19.3096 2.75 18.75 3.30964 18.75 4C18.75 4.69036 19.3096 5.25 20 5.25C20.6904 5.25 21.25 4.69036 21.25 4C21.25 3.30964 20.6904 2.75 20 2.75ZM17.25 15C17.25 14.5858 17.5858 14.25 18 14.25H20.2857C21.6612 14.25 22.75 15.3839 22.75 16.75C22.75 17.8285 22.0713 18.7624 21.1086 19.1077L22.6396 21.6084C22.8559 21.9616 22.7449 22.4234 22.3916 22.6396C22.0384 22.8559 21.5766 22.7449 21.3604 22.3916L19.4369 19.25H18.75V22C18.75 22.4142 18.4142 22.75 18 22.75C17.5858 22.75 17.25 22.4142 17.25 22V15ZM18.75 17.75H20.2857C20.8038 17.75 21.25 17.3169 21.25 16.75C21.25 16.1831 20.8038 15.75 20.2857 15.75H18.75V17.75ZM4 18.75C3.30964 18.75 2.75 19.3096 2.75 20C2.75 20.6904 3.30964 21.25 4 21.25C4.69036 21.25 5.25 20.6904 5.25 20C5.25 19.3096 4.69036 18.75 4 18.75ZM12 18.75C11.3096 18.75 10.75 19.3096 10.75 20C10.75 20.6904 11.3096 21.25 12 21.25C12.6904 21.25 13.25 20.6904 13.25 20C13.25 19.3096 12.6904 18.75 12 18.75Z" fill="#1C274C"/>
</svg>