<?xml version="1.0" encoding="utf-8"?><!-- Uploaded to: SVG Repo, www.svgrepo.com, Generator: SVG Repo Mixer Tools -->
<svg width="800px" height="800px" viewBox="0 0 24 24" fill="none" xmlns="http://www.w3.org/2000/svg">
<path fill-rule="evenodd" clip-rule="evenodd" d="M12.0001 1.25C9.37678 1.25 7.25013 3.37665 7.25013 6C7.25013 8.62335 9.37678 10.75 12.0001 10.75C14.6235 10.75 16.7501 8.62335 16.7501 6C16.7501 3.37665 14.6235 1.25 12.0001 1.25ZM8.75013 6C8.75013 4.20507 10.2052 2.75 12.0001 2.75C13.7951 2.75 15.2501 4.20507 15.2501 6C15.2501 7.79493 13.7951 9.25 12.0001 9.25C10.2052 9.25 8.75013 7.79493 8.75013 6Z" fill="#1C274C"/>
<path d="M19.8556 14.5729C20.1529 14.8614 20.16 15.3362 19.8715 15.6334L18.0383 17.5223C17.8902 17.6749 17.6843 17.7575 17.4718 17.7495C17.2593 17.7414 17.0602 17.6436 16.924 17.4802L16.0905 16.4802C15.8253 16.162 15.8683 15.6891 16.1864 15.4239C16.5046 15.1587 16.9776 15.2016 17.2428 15.5198L17.5425 15.8794L18.7951 14.5888C19.0836 14.2915 19.5584 14.2844 19.8556 14.5729Z" fill="#1C274C"/>
<path fill-rule="evenodd" clip-rule="evenodd" d="M14.7748 12.5129C13.9021 12.3421 12.9686 12.25 12.0001 12.25C9.68658 12.25 7.55506 12.7759 5.97558 13.6643C4.41962 14.5396 3.25013 15.8661 3.25013 17.5L3.25007 17.602C3.24894 18.7638 3.24752 20.222 4.52655 21.2635C5.15602 21.7761 6.03661 22.1406 7.22634 22.3815C8.41939 22.6229 9.97436 22.75 12.0001 22.75C14.8682 22.75 16.81 22.4961 18.1197 22.0085C19.2986 21.5697 19.9974 20.9266 20.3705 20.1172C21.7928 19.2966 22.7501 17.7601 22.7501 16C22.7501 13.3766 20.6235 11.25 18.0001 11.25C16.755 11.25 15.6218 11.7291 14.7748 12.5129ZM14.7501 16C14.7501 14.2051 16.2052 12.75 18.0001 12.75C19.7951 12.75 21.2501 14.2051 21.2501 16C21.2501 17.7949 19.7951 19.25 18.0001 19.25C16.2052 19.25 14.7501 17.7949 14.7501 16ZM13.7558 13.865C13.4323 14.5069 13.2501 15.2322 13.2501 16C13.2501 18.3893 15.0142 20.3666 17.311 20.7004C16.2402 21.0366 14.5781 21.25 12.0001 21.25C10.0259 21.25 8.58087 21.1252 7.52392 20.9113C6.46366 20.6967 5.84425 20.4022 5.47372 20.1004C4.79045 19.544 4.75013 18.8078 4.75013 17.5C4.75013 16.6487 5.37151 15.7251 6.71098 14.9717C8.02693 14.2315 9.89541 13.75 12.0001 13.75C12.6062 13.75 13.1941 13.79 13.7558 13.865Z" fill="#1C274C"/>
</svg>