<?xml version="1.0" encoding="utf-8"?>
<svg width="800px" height="800px" viewBox="0 0 24 24" fill="none" xmlns="http://www.w3.org/2000/svg">
<path fill-rule="evenodd" clip-rule="evenodd" d="M7.25013 6C7.25013 3.37665 9.37678 1.25 12.0001 1.25C14.6235 1.25 16.7501 3.37665 16.7501 6C16.7501 8.62335 14.6235 10.75 12.0001 10.75C9.37678 10.75 7.25013 8.62335 7.25013 6ZM12.0001 2.75C10.2052 2.75 8.75013 4.20507 8.75013 6C8.75013 7.79493 10.2052 9.25 12.0001 9.25C13.7951 9.25 15.2501 7.79493 15.2501 6C15.2501 4.20507 13.7951 2.75 12.0001 2.75Z" fill="#1C274C"/>
<path fill-rule="evenodd" clip-rule="evenodd" d="M14.7748 12.5129C13.9021 12.3421 12.9686 12.25 12.0001 12.25C9.68658 12.25 7.55506 12.7759 5.97558 13.6643C4.41962 14.5396 3.25013 15.8661 3.25013 17.5L3.25007 17.602C3.24894 18.7638 3.24752 20.222 4.52655 21.2635C5.15602 21.7761 6.03661 22.1406 7.22634 22.3815C8.41939 22.6229 9.97436 22.75 12.0001 22.75C14.8682 22.75 16.81 22.4961 18.1197 22.0085C19.2986 21.5697 19.9974 20.9266 20.3705 20.1172C21.7928 19.2966 22.7501 17.7601 22.7501 16C22.7501 14.6885 22.2176 13.5 21.3588 12.6412C20.5001 11.7825 19.3116 11.25 18.0001 11.25C16.755 11.25 15.6218 11.7291 14.7748 12.5129ZM6.71098 14.9717C5.37151 15.7251 4.75013 16.6487 4.75013 17.5C4.75013 18.8078 4.79045 19.544 5.47372 20.1004C5.84425 20.4022 6.46366 20.6967 7.52392 20.9113C8.58087 21.1252 10.0259 21.25 12.0001 21.25C14.5782 21.25 16.2404 21.0366 17.3111 20.7003C16.2751 20.5496 15.3469 20.0643 14.6413 19.3587C13.7826 18.5 13.2501 17.3114 13.2501 16C13.2501 15.2322 13.4323 14.5069 13.7558 13.865C13.1941 13.79 12.6062 13.75 12.0001 13.75C9.89541 13.75 8.02693 14.2315 6.71098 14.9717ZM14.7501 16C14.7501 14.2051 16.2052 12.75 18.0001 12.75C18.6262 12.75 19.2103 12.9265 19.7063 13.2331L15.2333 17.7061C14.9267 17.2102 14.7501 16.626 14.7501 16ZM16.2939 18.7668L20.7669 14.2938C21.0736 14.7898 21.2501 15.3739 21.2501 16C21.2501 17.7949 19.7951 19.25 18.0001 19.25C17.374 19.25 16.7899 19.0734 16.2939 18.7668Z" fill="#1C274C"/>
</svg>