<?xml version="1.0" encoding="utf-8"?>
<svg width="800px" height="800px" viewBox="0 0 24 24" fill="none" xmlns="http://www.w3.org/2000/svg">
<path fill-rule="evenodd" clip-rule="evenodd" d="M12 2.75C6.89137 2.75 2.75 6.89137 2.75 12C2.75 17.1086 6.89137 21.25 12 21.25C17.1086 21.25 21.25 17.1086 21.25 12C21.25 6.89137 17.1086 2.75 12 2.75ZM1.25 12C1.25 6.06294 6.06294 1.25 12 1.25C17.9371 1.25 22.75 6.06294 22.75 12C22.75 17.9371 17.9371 22.75 12 22.75C6.06294 22.75 1.25 17.9371 1.25 12ZM6.80317 11.25H9.35352C9.47932 10.8052 9.71426 10.4062 10.0276 10.0838L8.75225 7.87485C7.7184 8.68992 6.99837 9.88531 6.80317 11.25ZM10.0507 7.1238L11.3262 9.33314C11.5418 9.27884 11.7676 9.25 12 9.25C12.2324 9.25 12.4581 9.27883 12.6737 9.33312L13.9493 7.12378C13.3466 6.88264 12.6888 6.75 12 6.75C11.3112 6.75 10.6534 6.88265 10.0507 7.1238ZM15.2477 7.87481L13.9724 10.0837C14.2857 10.4062 14.5207 10.8052 14.6465 11.25H17.1968C17.0016 9.88529 16.2816 8.68988 15.2477 7.87481ZM17.1968 12.75H14.6465C14.5207 13.1949 14.2857 13.5939 13.9723 13.9163L15.2477 16.1252C16.2816 15.3102 17.0016 14.1147 17.1968 12.75ZM13.9492 16.8762L12.6736 14.6669C12.4581 14.7212 12.2324 14.75 12 14.75C11.7676 14.75 11.5419 14.7212 11.3263 14.6669L10.0507 16.8762C10.6534 17.1174 11.3112 17.25 12 17.25C12.6888 17.25 13.3465 17.1174 13.9492 16.8762ZM8.75229 16.1252L10.0276 13.9163C9.71428 13.5938 9.47933 13.1948 9.35352 12.75H6.80317C6.99837 14.1147 7.71842 15.3101 8.75229 16.1252ZM11.3859 13.089C11.3823 13.0869 11.3787 13.0847 11.375 13.0826C11.3715 13.0806 11.368 13.0786 11.3645 13.0766C10.9967 12.859 10.75 12.4583 10.75 12C10.75 11.5434 10.9949 11.1439 11.3605 10.9258C11.3653 10.9231 11.3702 10.9204 11.375 10.9176C11.3801 10.9146 11.3851 10.9116 11.3902 10.9086C11.5705 10.8076 11.7785 10.75 12 10.75C12.2204 10.75 12.4275 10.8071 12.6073 10.9072C12.6131 10.9107 12.619 10.9142 12.6249 10.9177C12.6306 10.9209 12.6362 10.9241 12.642 10.9272C13.0062 11.1457 13.25 11.5444 13.25 12C13.25 12.4595 13.0021 12.8611 12.6327 13.0783C12.6301 13.0797 12.6276 13.0812 12.625 13.0827C12.6222 13.0843 12.6194 13.0859 12.6166 13.0876C12.4347 13.191 12.2242 13.25 12 13.25C11.7768 13.25 11.5673 13.1915 11.3859 13.089ZM5.25 12C5.25 8.27208 8.27208 5.25 12 5.25C15.7279 5.25 18.75 8.27208 18.75 12C18.75 15.7279 15.7279 18.75 12 18.75C8.27208 18.75 5.25 15.7279 5.25 12Z" fill="#1C274C"/>
</svg>