<?xml version="1.0" encoding="utf-8"?><!-- Uploaded to: SVG Repo, www.svgrepo.com, Generator: SVG Repo Mixer Tools -->
<svg width="800px" height="800px" viewBox="0 0 24 24" fill="none" xmlns="http://www.w3.org/2000/svg">
<circle cx="12" cy="12" r="10" stroke="#1C274C" stroke-width="1.5"/>
<circle cx="12" cy="12" r="3" stroke="#1C274C" stroke-width="1.5"/>
<path d="M2 13C2 13 4.20085 15 6 15C7.21199 15 8.60628 14.0924 9.38725 13.5" stroke="#1C274C" stroke-width="1.5"/>
<path d="M14 14.2236C14.4713 14.6389 15.0875 15 15.8053 15C17.4948 15 17.4948 13 19.1842 13C20.2618 13 21.1102 13.8136 21.5835 14.4029" stroke="#1C274C" stroke-width="1.5"/>
<path d="M14.5 7L16 5" stroke="#1C274C" stroke-width="1.5" stroke-linecap="round"/>
<path d="M19 7L20 6" stroke="#1C274C" stroke-width="1.5" stroke-linecap="round"/>
<path d="M12 5L11 4" stroke="#1C274C" stroke-width="1.5" stroke-linecap="round"/>
<path d="M10.5 7L9.13397 7.36603" stroke="#1C274C" stroke-width="1.5" stroke-linecap="round"/>
<path d="M16.6497 8.9766L16.7161 10.3893" stroke="#1C274C" stroke-width="1.5" stroke-linecap="round"/>
<path d="M20.6777 10.085L18.9996 11.5629" stroke="#1C274C" stroke-width="1.5" stroke-linecap="round"/>
<path d="M7 5L6 4" stroke="#1C274C" stroke-width="1.5" stroke-linecap="round"/>
<path d="M6.79245 9.14385L6.20722 7.85641" stroke="#1C274C" stroke-width="1.5" stroke-linecap="round"/>
<path d="M5.66477 12.6415L6.5 11.5002" stroke="#1C274C" stroke-width="1.5" stroke-linecap="round"/>
<path d="M3.68293 10.3496L3.60427 8.93757" stroke="#1C274C" stroke-width="1.5" stroke-linecap="round"/>
</svg>