<?xml version="1.0" encoding="utf-8"?><!-- Uploaded to: SVG Repo, www.svgrepo.com, Generator: SVG Repo Mixer Tools -->
<svg width="800px" height="800px" viewBox="0 0 24 24" fill="none" xmlns="http://www.w3.org/2000/svg">
<path d="M3.03365 8.89004C2.55311 5.68645 2.31285 4.08466 3.21049 3.04233C4.10813 2 5.72784 2 8.96727 2H15.033C18.2724 2 19.8922 2 20.7898 3.04233C21.6874 4.08466 21.4472 5.68646 20.9666 8.89004L19.7666 16.89C19.401 19.3276 19.2182 20.5464 18.3743 21.2732C17.5303 22 16.2979 22 13.833 22H10.1673C7.7024 22 6.46997 22 5.62604 21.2732C4.78211 20.5464 4.59929 19.3276 4.23365 16.89L3.03365 8.89004Z" stroke="#1C274C" stroke-width="1.5"/>
<path d="M8 6L3.5 11L11 19M14 6L4 16M20 6L7 19M13 19L20.5 11L16 6M10 6L20 16M4 6L17 19" stroke="#1C274C" stroke-width="1.5" stroke-linejoin="round"/>
<path d="M21 6H3" stroke="#1C274C" stroke-width="1.5" stroke-linecap="round"/>
<path d="M19 19H5" stroke="#1C274C" stroke-width="1.5" stroke-linecap="round"/>
</svg>